<svg width="20" height="20" viewBox="0 0 20 20" fill="none" xmlns="http://www.w3.org/2000/svg">
<path d="M9.95415 2.25394C12.475 2.25394 12.75 2.25394 13.7583 2.29977C14.675 2.3456 15.1792 2.4831 15.5 2.6206C15.9125 2.7581 16.2792 3.0331 16.6 3.3081C16.9208 3.62894 17.15 3.9956 17.2875 4.4081C17.425 4.72894 17.5625 5.2331 17.6083 6.14977C17.6542 7.1581 17.6542 7.4331 17.6542 9.95393C17.6542 12.4748 17.6542 12.7498 17.6083 13.7581C17.5625 14.6748 17.425 15.1789 17.2875 15.4998C16.9667 16.3248 16.325 16.9664 15.5 17.2873C15.1792 17.4248 14.675 17.5623 13.7583 17.6081C12.75 17.6539 12.475 17.6539 9.95415 17.6539C7.43332 17.6539 7.15832 17.6539 6.14999 17.6081C5.23332 17.5623 4.72915 17.4248 4.40832 17.2873C3.99582 17.1498 3.62915 16.8748 3.30832 16.5998C2.98749 16.2789 2.75832 15.9123 2.62082 15.4998C2.48332 15.1789 2.34582 14.6748 2.29999 13.7581C2.25415 12.7498 2.25415 12.4748 2.25415 9.95393C2.25415 7.4331 2.25415 7.1581 2.29999 6.14977C2.34582 5.2331 2.48332 4.72894 2.62082 4.4081C2.75832 3.9956 3.03332 3.62894 3.30832 3.3081C3.62915 2.98727 3.99582 2.7581 4.40832 2.6206C4.72915 2.4831 5.23332 2.3456 6.14999 2.29977C7.15832 2.25394 7.47915 2.25394 9.95415 2.25394ZM9.95415 0.558105C7.38749 0.558105 7.06665 0.558105 6.05832 0.603939C5.04999 0.649772 4.36249 0.787272 3.76665 1.06227C3.17082 1.29144 2.62082 1.65811 2.16249 2.11644C1.70415 2.57477 1.29165 3.1706 1.06249 3.76644C0.833319 4.36227 0.649986 5.04977 0.604152 6.0581C0.558319 7.06644 0.558319 7.38727 0.558319 9.95393C0.558319 12.5206 0.558319 12.8414 0.604152 13.8498C0.649986 14.8581 0.787486 15.5456 1.06249 16.1414C1.29165 16.7373 1.65832 17.3331 2.16249 17.7914C2.62082 18.2498 3.21665 18.6623 3.81249 18.8914C4.40832 19.1206 5.09582 19.3039 6.10415 19.3498C7.11249 19.3956 7.43332 19.3956 9.99998 19.3956C12.5667 19.3956 12.8875 19.3956 13.8958 19.3498C14.9042 19.3039 15.5917 19.1664 16.1875 18.8914C17.4708 18.3873 18.4333 17.4248 18.9375 16.1414C19.1666 15.5456 19.35 14.8581 19.3958 13.8498C19.4417 12.8414 19.4416 12.5206 19.4416 9.95393C19.4416 7.38727 19.4417 7.06644 19.3958 6.0581C19.35 5.04977 19.2125 4.36227 18.9375 3.76644C18.7083 3.12477 18.3417 2.57477 17.8375 2.11644C17.3791 1.65811 16.7833 1.24561 16.1875 1.01644C15.5917 0.787272 14.9042 0.603939 13.8958 0.558105C12.8417 0.558105 12.5208 0.558105 9.95415 0.558105Z" fill="#2B2B39"/>
<path d="M9.95285 5.1416C7.29452 5.1416 5.14035 7.29577 5.14035 9.9541C5.14035 12.6124 7.29452 14.7666 9.95285 14.7666C12.6112 14.7666 14.7654 12.6124 14.7654 9.9541C14.8112 7.29577 12.657 5.1416 9.95285 5.1416ZM9.95285 13.1166C8.21119 13.1166 6.83619 11.6958 6.83619 9.99994C6.83619 8.25827 8.25702 6.88327 9.95285 6.88327C11.6945 6.88327 13.0695 8.3041 13.0695 9.99994C13.1154 11.6958 11.6945 13.1166 9.95285 13.1166Z" fill="#2B2B39"/>
<path d="M14.9971 6.10417C15.6299 6.10417 16.143 5.59116 16.143 4.95833C16.143 4.32551 15.6299 3.8125 14.9971 3.8125C14.3643 3.8125 13.8513 4.32551 13.8513 4.95833C13.8513 5.59116 14.3643 6.10417 14.9971 6.10417Z" fill="#2B2B39"/>
</svg>
