<svg width="22" height="22" viewBox="0 0 22 22" fill="none" xmlns="http://www.w3.org/2000/svg">
<path d="M4.56774 6.59727C5.67544 6.59727 6.57341 5.6993 6.57341 4.5916C6.57341 3.4839 5.67544 2.58594 4.56774 2.58594C3.46004 2.58594 2.56207 3.4839 2.56207 4.5916C2.56207 5.6993 3.46004 6.59727 4.56774 6.59727Z" fill="#2B2B39"/>
<path d="M8.4661 8.11728V19.2447H11.921V13.742C11.921 12.29 12.1942 10.8838 13.9945 10.8838C15.7701 10.8838 15.7921 12.5439 15.7921 13.8336V19.2456H19.2489V13.1434C19.2489 10.1459 18.6035 7.84229 15.1 7.84229C13.4179 7.84229 12.2904 8.76537 11.8294 9.63895H11.7826V8.11728H8.4661V8.11728ZM2.83594 8.11728H6.29635V19.2447H2.83594V8.11728Z" fill="#2B2B39"/>
</svg>
